<?xml version="1.0" standalone="no"?><!DOCTYPE svg PUBLIC "-//W3C//DTD SVG 1.1//EN" "http://www.w3.org/Graphics/SVG/1.1/DTD/svg11.dtd"><svg t="1725602157802" class="icon" viewBox="0 0 1024 1024" version="1.1" xmlns="http://www.w3.org/2000/svg" p-id="44772" xmlns:xlink="http://www.w3.org/1999/xlink" width="200" height="200"><path d="M472.812162 700.782989c0 0 233.490938 184.588796 438.616111-262.698608C911.428273 438.084381 478.507811 356.661481 472.812162 700.782989zM507.759792 929.587202c-70.75421-95.701221-129.769452-254.204558-16.258675-472.36394C689.055951 77.424698 437.605483 7.61465 437.605483 7.61465s213.319273 94.971796 11.442426 417.115121C509.068667 153.877965 132.477527 73.852561 132.477527 73.852561c7.157907 408.338163 208.912047 420.878135 275.968005 413.696368-124.090845 195.857388-87.960456 348.937758-35.377105 443.48008-87.166269 13.248946-152.030544 49.185049-160.07126 92.970991l465.393502 0C670.043186 978.472301 600.236546 941.394341 507.759792 929.587202z" fill="#32f33f" p-id="44773"></path></svg>