<?xml version="1.0" standalone="no"?><!DOCTYPE svg PUBLIC "-//W3C//DTD SVG 1.1//EN" "http://www.w3.org/Graphics/SVG/1.1/DTD/svg11.dtd"><svg t="1725602034002" class="icon" viewBox="0 0 1024 1024" version="1.1" xmlns="http://www.w3.org/2000/svg" p-id="42001" xmlns:xlink="http://www.w3.org/1999/xlink" width="200" height="200"><path d="M959.986 959.984H64.012c-35.296 0-63.998-28.686-63.998-63.998v-63.998h1023.972v63.998c0 35.312-28.688 63.998-64 63.998z" fill="#E5E8EC" p-id="42002"></path><path d="M123.074 139.194H512v714.136H123.074z" fill="#4FC0E8" p-id="42003"></path><path d="M84.808 106.68v767.994h833.054V106.68H84.808z m790.37 725.308H127.48V149.35h747.698v682.638z" fill="#E5E8EC" p-id="42004"></path><path d="M490.672 128.008h42.656v725.322h-42.656z" fill="#E5E8EC" p-id="42005"></path><path d="M448 554.684c-11.782 0-21.328-9.562-21.328-21.344v-85.342c0-11.78 9.546-21.328 21.328-21.328s21.328 9.546 21.328 21.328v85.342c0.002 11.782-9.546 21.344-21.328 21.344z" fill="#424953" p-id="42006"></path><path d="M170.68 256.004a21.31 21.31 0 0 1-15.094-6.234c-8.328-8.344-8.328-21.844 0-30.172l42.67-42.67c8.328-8.328 21.844-8.328 30.17 0 8.328 8.328 8.328 21.842 0 30.17l-42.67 42.672a21.288 21.288 0 0 1-15.076 6.234zM170.68 341.346a21.326 21.326 0 0 1-15.094-6.25c-8.328-8.328-8.328-21.844 0-30.172l127.998-127.998c8.328-8.328 21.844-8.328 30.17 0 8.328 8.328 8.328 21.842 0 30.17l-127.996 127.998a21.308 21.308 0 0 1-15.078 6.252z" fill="#3BAFDA" p-id="42007"></path><path d="M853.302 874.674c11.812 0 21.376-9.562 21.376-21.344v-21.342h-42.688v21.342c0 11.782 9.562 21.344 21.312 21.344zM938.674 874.674c11.75 0 21.312-9.562 21.312-21.344v-21.342H917.3v21.342c0 11.782 9.564 21.344 21.374 21.344zM767.992 874.674c11.782 0 21.31-9.562 21.31-21.344v-21.342H746.68v21.342c0.002 11.782 9.53 21.344 21.312 21.344zM682.684 874.674c11.75 0 21.312-9.562 21.312-21.344v-21.342h-42.688v21.342c0 11.782 9.564 21.344 21.376 21.344zM597.31 874.674c11.81 0 21.374-9.562 21.374-21.344v-21.342h-42.686v21.342c0 11.782 9.562 21.344 21.312 21.344zM512 874.674c11.782 0 21.328-9.562 21.328-21.344v-21.342h-42.656v21.342c0 11.782 9.546 21.344 21.328 21.344zM426.674 874.674c11.78 0 21.328-9.562 21.328-21.344v-21.342h-42.67v21.342c-0.002 11.782 9.56 21.344 21.342 21.344zM341.334 874.674c11.796 0 21.342-9.562 21.342-21.344v-21.342h-42.67v21.342c-0.002 11.782 9.546 21.344 21.328 21.344zM256.006 874.674c11.782 0 21.328-9.562 21.328-21.344v-21.342h-42.656v21.342c0 11.782 9.548 21.344 21.328 21.344zM170.68 874.674c11.782 0 21.328-9.562 21.328-21.344v-21.342H149.338v21.342c0 11.782 9.562 21.344 21.342 21.344zM85.34 874.674c11.782 0 21.342-9.562 21.342-21.344v-21.342H64.012v21.342c0 11.782 9.546 21.344 21.328 21.344z" fill="#F4F6F9" p-id="42008"></path><path d="M661.308 895.986l255.992-42.656V128.008L661.308 85.354z" fill="#4FC0E8" p-id="42009"></path><path d="M661.308 917.33c-5 0-9.876-1.782-13.75-5.062a21.22 21.22 0 0 1-7.562-16.282V85.354c0-6.266 2.75-12.234 7.562-16.282a21.296 21.296 0 0 1 17.282-4.766l255.992 42.67a21.336 21.336 0 0 1 17.842 21.03v725.322c0 10.406-7.562 19.344-17.842 21.032L664.84 917.048c-1.156 0.188-2.344 0.282-3.532 0.282zM682.684 110.54v760.258l213.304-35.56V146.084L682.684 110.54z" fill="#F4F6F9" p-id="42010"></path><path d="M725.182 552.872c-11.81 0-21.374-9.532-21.374-21.312v-85.326c0-11.78 9.562-21.342 21.374-21.342 11.75 0 21.312 9.562 21.312 21.342v85.326c0 11.78-9.562 21.312-21.312 21.312z" fill="#424953" p-id="42011"></path></svg>